<svg xmlns="http://www.w3.org/2000/svg" width="383.082" height="265.934" viewBox="0 0 383.082 265.934">
  <g id="Group_285" data-name="Group 285" transform="translate(-768.918 -196.033)">
    <g id="Group_284" data-name="Group 284" transform="translate(768.918 196.033)">
      <circle id="Ellipse_23" data-name="Ellipse 23" cx="21.879" cy="21.879" r="21.879" transform="translate(50.797 13.332)" fill="#f87d02"/>
      <path id="Path_2113" data-name="Path 2113" d="M299.743,178.34c0,51.624-30.69,69.649-68.547,69.649s-68.547-18.025-68.547-69.649S231.2,61.042,231.2,61.042,299.743,126.716,299.743,178.34Z" transform="translate(-120.62 -61.042)" fill="#f2f2f2"/>
      <path id="Path_2114" data-name="Path 2114" d="M263.115,179.05l.7-43.2L293.034,82.4l-29.106,46.673.316-19.427,20.136-38.671L264.327,104.5h0l.567-34.94,21.562-30.787L264.984,64.067,265.338,0l-2.229,84.813.183-3.5L241.37,47.759,262.941,88.03,260.9,127.052l-.061-1.035L235.565,90.7l25.2,38.971-.255,4.88-.046.074.021.4-5.182,99h6.924l.831-51.136,25.134-38.876Z" transform="translate(-155.036)" fill="#3f3d56"/>
      <path id="Path_2115" data-name="Path 2115" d="M944.255,281.166c0,42.257-25.121,57.011-56.109,57.011s-56.109-14.754-56.109-57.011,56.108-96.014,56.108-96.014S944.255,238.909,944.255,281.166Z" transform="translate(-561.173 -142.724)" fill="#f2f2f2"/>
      <path id="Path_2116" data-name="Path 2116" d="M907.066,270.671l.574-35.365,23.915-43.752-23.825,38.2.258-15.9L924.472,182.2l-16.415,27.446h0l.465-28.6,17.65-25.2-17.577,20.7.291-52.442-1.824,69.423.15-2.864L889.266,163.2l17.657,32.965-1.672,31.941-.05-.848-20.687-28.9,20.624,31.9-.209,3.995-.037.06.017.328-4.242,81.037h5.668l.68-41.857L927.586,242Z" transform="translate(-582.138 -81.682)" fill="#3f3d56"/>
      <ellipse id="Ellipse_24" data-name="Ellipse 24" cx="189.59" cy="9.584" rx="189.59" ry="9.584" transform="translate(0 223.042)" fill="#3f3d56"/>
      <ellipse id="Ellipse_25" data-name="Ellipse 25" cx="32.472" cy="1.641" rx="32.472" ry="1.641" transform="translate(272.615 246.818)" fill="#3f3d56"/>
      <ellipse id="Ellipse_26" data-name="Ellipse 26" cx="32.472" cy="1.641" rx="32.472" ry="1.641" transform="translate(155.11 262.652)" fill="#3f3d56"/>
      <ellipse id="Ellipse_27" data-name="Ellipse 27" cx="74.187" cy="3.75" rx="74.187" ry="3.75" transform="translate(24.248 247.267)" fill="#3f3d56"/>
      <circle id="Ellipse_28" data-name="Ellipse 28" cx="27.007" cy="27.007" r="27.007" transform="translate(6.182 166.576)" fill="#2f2e41"/>
      <rect id="Rectangle_22" data-name="Rectangle 22" width="8.205" height="14.7" transform="translate(20.633 214.63) rotate(0.675)" fill="#2f2e41"/>
      <rect id="Rectangle_23" data-name="Rectangle 23" width="8.205" height="14.7" transform="translate(37.041 214.824) rotate(0.675)" fill="#2f2e41"/>
      <ellipse id="Ellipse_29" data-name="Ellipse 29" cx="2.564" cy="6.837" rx="2.564" ry="6.837" transform="translate(20.427 232.064) rotate(-89.325)" fill="#2f2e41"/>
      <ellipse id="Ellipse_30" data-name="Ellipse 30" cx="2.564" cy="6.837" rx="2.564" ry="6.837" transform="translate(36.839 231.915) rotate(-89.325)" fill="#2f2e41"/>
      <circle id="Ellipse_31" data-name="Ellipse 31" cx="9.23" cy="9.23" r="9.23" transform="translate(24.723 177.524)" fill="#fff"/>
      <circle id="Ellipse_32" data-name="Ellipse 32" cx="3.077" cy="3.077" r="3.077" transform="translate(30.876 183.677)" fill="#3f3d56"/>
      <path id="Path_2117" data-name="Path 2117" d="M60.337,509.948c-2.065-9.791,5.021-19.576,15.828-21.856s21.242,3.809,23.308,13.6S94.352,515,83.545,517.28,62.4,519.739,60.337,509.948Z" transform="translate(-53.048 -341.788)" fill="#576b94"/>
      <path id="Path_2118" data-name="Path 2118" d="M161.036,589.024c0,18.828-11.192,25.4-25,25.4q-.48,0-.958-.011c-.64-.014-1.273-.044-1.9-.087-12.461-.882-22.142-7.794-22.142-25.3,0-18.121,23.157-40.987,24.9-42.679l0,0,.1-.1S161.036,570.2,161.036,589.024Z" transform="translate(-86.651 -380.375)" fill="#576b94"/>
      <path id="Path_2119" data-name="Path 2119" d="M162.157,611.546l9.144-12.776-9.166,14.179-.024,1.467c-.64-.014-1.273-.044-1.9-.087l.986-18.837-.008-.146.017-.027.093-1.779-9.189-14.214,9.218,12.88.021.378.745-14.232-7.867-14.688,7.963,12.19.775-29.507,0-.1v.1l-.129,23.268,7.832-9.224-7.864,11.229-.207,12.743,7.313-12.23-7.343,14.1-.116,7.084,10.617-17.022-10.656,19.494Z" transform="translate(-113.682 -380.375)" fill="#3f3d56"/>
      <circle id="Ellipse_33" data-name="Ellipse 33" cx="27.007" cy="27.007" r="27.007" transform="translate(216.56 166.283)" fill="#2f2e41"/>
      <rect id="Rectangle_24" data-name="Rectangle 24" width="8.205" height="14.7" transform="matrix(0.956, -0.294, 0.294, 0.956, 238.029, 217.167)" fill="#2f2e41"/>
      <rect id="Rectangle_25" data-name="Rectangle 25" width="8.205" height="14.7" transform="matrix(0.956, -0.294, 0.294, 0.956, 253.714, 212.347)" fill="#2f2e41"/>
      <ellipse id="Ellipse_34" data-name="Ellipse 34" cx="6.837" cy="2.564" rx="6.837" ry="2.564" transform="matrix(0.956, -0.294, 0.294, 0.956, 241.644, 228.931)" fill="#2f2e41"/>
      <ellipse id="Ellipse_35" data-name="Ellipse 35" cx="6.837" cy="2.564" rx="6.837" ry="2.564" transform="matrix(0.956, -0.294, 0.294, 0.956, 257.229, 223.784)" fill="#2f2e41"/>
      <circle id="Ellipse_36" data-name="Ellipse 36" cx="9.23" cy="9.23" r="9.23" transform="translate(232.982 177.324)" fill="#fff"/>
      <circle id="Ellipse_37" data-name="Ellipse 37" cx="3.077" cy="3.077" r="3.077" transform="translate(239.135 183.477)" fill="#3f3d56"/>
      <path id="Path_2120" data-name="Path 2120" d="M653.154,523.877c-4.953-8.694-1.189-20.175,8.408-25.642s21.392-2.851,26.345,5.843-.817,14.236-10.414,19.7S658.107,532.571,653.154,523.877Z" transform="translate(-442.007 -346.898)" fill="#576b94"/>
      <path id="Path_2121" data-name="Path 2121" d="M522.933,585.7c0,17.283-10.274,23.318-22.949,23.318q-.44,0-.879-.01c-.587-.013-1.169-.041-1.744-.08-11.439-.81-20.326-7.155-20.326-23.228,0-16.634,21.257-37.624,22.854-39.178l0,0,.092-.089S522.933,568.413,522.933,585.7Z" transform="translate(-327.532 -380.495)" fill="#576b94"/>
      <path id="Path_2122" data-name="Path 2122" d="M523.962,606.369l8.393-11.728-8.414,13.016L523.919,609c-.587-.013-1.169-.041-1.744-.08l.9-17.292-.007-.134.015-.025.085-1.633-8.435-13.048,8.462,11.823.02.347L523.9,575.9l-7.222-13.483,7.31,11.19.712-27.086,0-.092v.09l-.119,21.359,7.19-8.468-7.219,10.308-.19,11.7,6.713-11.226-6.741,12.947-.106,6.5,9.745-15.625L524.2,591.905Z" transform="translate(-352.345 -380.495)" fill="#3f3d56"/>
      <path id="Path_2123" data-name="Path 2123" d="M779.036,600.024c0,18.828-11.192,25.4-25,25.4q-.48,0-.958-.011c-.64-.014-1.273-.044-1.9-.087-12.461-.882-22.142-7.794-22.142-25.3,0-18.121,23.157-40.987,24.9-42.679l0,0,.1-.1S779.036,581.2,779.036,600.024Z" transform="translate(-493.384 -387.615)" fill="#576b94"/>
      <path id="Path_2124" data-name="Path 2124" d="M780.156,622.546l9.144-12.776-9.166,14.179-.024,1.467c-.64-.014-1.273-.044-1.9-.087l.985-18.837-.008-.146.017-.027.093-1.779-9.189-14.214,9.218,12.88.021.378.745-14.232-7.867-14.688,7.963,12.19.775-29.507,0-.1v.1l-.13,23.268,7.832-9.224-7.864,11.229-.207,12.743,7.313-12.23-7.343,14.1-.116,7.084,10.617-17.021-10.656,19.494Z" transform="translate(-520.416 -387.615)" fill="#3f3d56"/>
      <ellipse id="Ellipse_38" data-name="Ellipse 38" cx="4.239" cy="13.503" rx="4.239" ry="13.503" transform="translate(219.065 201.714) rotate(-64.626)" fill="#2f2e41"/>
      <ellipse id="Ellipse_39" data-name="Ellipse 39" cx="4.239" cy="13.503" rx="4.239" ry="13.503" transform="translate(10.781 200.871) rotate(-68.159)" fill="#2f2e41"/>
    </g>
  </g>
</svg>
