<svg xmlns="http://www.w3.org/2000/svg" xmlns:xlink="http://www.w3.org/1999/xlink" width="238.268" height="207.06" viewBox="0 0 238.268 207.06">
  <defs>
    <linearGradient id="linear-gradient" x1="0.5" x2="0.5" y2="1" gradientUnits="objectBoundingBox">
      <stop offset="0" stop-color="#f7a501"/>
      <stop offset="1" stop-color="#ef6800"/>
    </linearGradient>
    <filter id="Path_2130" x="9.355" y="0" width="137.768" height="207.06" filterUnits="userSpaceOnUse">
      <feOffset dy="3" input="SourceAlpha"/>
      <feGaussianBlur stdDeviation="10" result="blur"/>
      <feFlood flood-opacity="0.349"/>
      <feComposite operator="in" in2="blur"/>
      <feComposite in="SourceGraphic"/>
    </filter>
  </defs>
  <g id="Group_286" data-name="Group 286" transform="translate(-582.454 -298.234)">
    <g id="Group_288" data-name="Group 288">
      <path id="Path_2128" data-name="Path 2128" d="M138.333,86.5a127.622,127.622,0,0,1,119.112,81.8L197.867,191.23a63.8,63.8,0,0,0-119.111,0L19.178,168.306A127.68,127.68,0,0,1,138.333,86.5Z" transform="translate(563.275 244.792)" fill="#e6e6e6" fill-rule="evenodd" opacity="0.64"/>
      <path id="Path_2129" data-name="Path 2129" d="M101.117,155.062c-11.637,7.277-17.393,16.126-22.36,29.114L19.178,161.252a128.045,128.045,0,0,1,50.25-61.627Z" transform="translate(563.275 251.847)" fill-rule="evenodd" fill="url(#linear-gradient)"/>
      <g transform="matrix(1, 0, 0, 1, 582.45, 298.23)" filter="url(#Path_2130)">
        <path id="Path_2130-2" class="pointer" data-name="Path 2130" d="M44.775,82.56h0l77.1,138.464a5.9,5.9,0,0,1-2.66,7.977h0a5.871,5.871,0,0,1-7.932-2.658Z" transform="translate(-5.42 -55.56)" fill="#495265" fill-rule="evenodd"/>
      </g>
    </g>
  </g>
</svg>
