<svg xmlns="http://www.w3.org/2000/svg" width="122.999" height="122.999" viewBox="0 0 122.999 122.999">
  <g id="Group_278" data-name="Group 278" transform="translate(-390.533 -246.513)">
    <g id="Group_277" data-name="Group 277">
      <ellipse id="Ellipse_1" data-name="Ellipse 1" cx="61.5" cy="61.5" rx="61.5" ry="61.5" transform="translate(390.533 246.513)" fill="#ffdba8"/>
    </g>
    <g id="Group_267" data-name="Group 267" transform="translate(417.229 279.621)">
      <path id="Path_1925" data-name="Path 1925" d="M397.615,920.212a18.359,18.359,0,0,0-34.045,13.661,18.156,18.156,0,0,0,1.676,3.478h20.976l6.749-15.083,7.483,25.356,5.133-10.256h24.392a18.075,18.075,0,0,0,1.638-3.36,18.361,18.361,0,0,0-34-13.8Z" transform="translate(-362.526 -909.417)" fill="#f87d02"/>
      <path id="Path_1926" data-name="Path 1926" d="M404.493,928.047l-7.449,14.88-7.354-24.915-4.483,10.018H364.5a18.009,18.009,0,0,0,1.768,1.734l28.006,27.822a.893.893,0,0,0,1.252,0l29.05-28.858v-.007c.209-.213.4-.451.6-.674Z" transform="translate(-359.765 -897.397)" fill="#f89102" opacity="0.48"/>
      <path id="Path_1927" data-name="Path 1927" d="M398.869,940.131l-7.483-25.356-6.749,15.084H363.66a18.542,18.542,0,0,0,1.732,2.4l.283.3h20.708l4.482-10.018,7.354,24.915,7.449-14.88h20.816a18.6,18.6,0,0,0,1.986-2.7H404Z" transform="translate(-360.94 -901.924)" fill="#fff"/>
    </g>
  </g>
</svg>
