<svg xmlns="http://www.w3.org/2000/svg" width="120.841" height="120.841" viewBox="0 0 120.841 120.841">
  <g id="Group_280" data-name="Group 280" transform="translate(-1365.288 -249.595)">
    <path id="Path_1937" data-name="Path 1937" d="M60.421,0A60.421,60.421,0,1,1,0,60.421,60.421,60.421,0,0,1,60.421,0Z" transform="translate(1365.288 249.595)" fill="#edffe1"/>
    <g id="Group_268" data-name="Group 268" transform="translate(1407.868 270.455)">
      <path id="Path_1928" data-name="Path 1928" d="M675.739,919.749l.036,0,.642-.015v-1.36a2.089,2.089,0,0,1,.055-.465l-.667.017-.067-.006Z" transform="translate(-672.994 -889.019)" fill="#fff"/>
      <path id="Path_1929" data-name="Path 1929" d="M675.929,921.506l.487-.011v-1.846l-.678.016v1.873Z" transform="translate(-672.994 -887.442)" fill="#fff"/>
      <path id="Path_1930" data-name="Path 1930" d="M675.739,924.973l.035,0,.642-.015v-1.822l-.611.014-.067-.005Z" transform="translate(-672.994 -884.289)" fill="#fff"/>
      <path id="Path_1931" data-name="Path 1931" d="M675.739,923.231l.1-.011.576-.016v-1.8l-.522.011-.156-.011Z" transform="translate(-672.994 -885.856)" fill="#fff"/>
      <path id="Path_1932" data-name="Path 1932" d="M676.417,926.716v-1.842l-.678.015v1.842Z" transform="translate(-672.994 -882.715)" fill="#fff"/>
      <path id="Path_1933" data-name="Path 1933" d="M679.872,919.9l-3.977.093-.156-.011v1.83l.1-.015,1.865-.042a3.208,3.208,0,0,1,1.543-.389h17.369a3.041,3.041,0,0,1,2.154.852V911.971H675.739v3.206l.1-.013,2.417-.057a.717.717,0,0,1,.75.728.774.774,0,0,1-.236.537.823.823,0,0,1-.55.231l-2.417.057-.067,0v1.874l.19-.028,3.976-.1a.718.718,0,0,1,.753.731.774.774,0,0,1-.236.534A.822.822,0,0,1,679.872,919.9Z" transform="translate(-672.994 -894.39)" fill="#fff"/>
      <path id="Path_1934" data-name="Path 1934" d="M676.417,928.225v-1.6l-.678.016v.713Z" transform="translate(-672.994 -881.131)" fill="#fff"/>
      <path id="Path_1935" data-name="Path 1935" d="M679.324,935.343l-3.229.078v1.6l2.831,3.638H694.94l3.511-4.509v-18.4a3.041,3.041,0,0,0-2.154-.852H678.927a3.209,3.209,0,0,0-1.543.388l.552-.013a.715.715,0,0,1,.75.729.771.771,0,0,1-.236.533.813.813,0,0,1-.55.231l-1.751.042a2.09,2.09,0,0,0-.055.465v1.36l1.775-.044a.716.716,0,0,1,.751.732.765.765,0,0,1-.236.533.813.813,0,0,1-.549.23l-1.741.042v1.846l3.488-.084a.718.718,0,0,1,.752.732.768.768,0,0,1-.236.533.823.823,0,0,1-.549.231l-3.455.082v1.8l1.842-.044a.715.715,0,0,1,.75.73.772.772,0,0,1-.236.533.814.814,0,0,1-.55.23l-1.806.046v1.821l1.775-.042a.713.713,0,0,1,.751.728.758.758,0,0,1-.236.533.8.8,0,0,1-.549.232l-1.741.042v1.842l3.265-.08a.72.72,0,0,1,.75.731.775.775,0,0,1-.238.534A.811.811,0,0,1,679.324,935.343Z" transform="translate(-672.672 -889.926)" fill="#43e8b9"/>
      <path id="Path_1936" data-name="Path 1936" d="M718.216,968.944h1.9V960.4a9.473,9.473,0,0,0-2.278-6.49,8.809,8.809,0,0,0-6.711-2.526,8.9,8.9,0,0,0-6.705,2.516,9.927,9.927,0,0,0-2.474,6.663v7.562l0,.061a6.584,6.584,0,0,1-1.511,4.423,7.3,7.3,0,0,1-9.286,0,6.714,6.714,0,0,1-1.558-4.475l0-7.585h2.084a1.648,1.648,0,0,0,1.649-1.65v-2.069h3.448a3.679,3.679,0,0,0,2.762-1.208l2.492-2.827a3.082,3.082,0,0,0,.789-2.044V919.687a3.412,3.412,0,0,0-3.551-3.254h-4.41a1.694,1.694,0,0,0-1.68-1.5h-4.793v-2.627a1.023,1.023,0,0,1,.385-.762,4.992,4.992,0,0,0,1.7-4.636,5.09,5.09,0,0,0-9.6-1.29,4.54,4.54,0,0,0-.158,3.337.857.857,0,0,0,1.446.268l.147-.166a.9.9,0,0,0,.156-.861,2.773,2.773,0,0,1,.156-1.831c.306-.722,1.156-1.911,3.385-1.7a3.038,3.038,0,0,1,2.594,2.547,3.116,3.116,0,0,1-1.051,2.892,2.909,2.909,0,0,0-1.054,2.206v2.627h-4.282a1.7,1.7,0,0,0-1.682,1.5h-2.68a3.41,3.41,0,0,0-3.549,3.254v31.068a3.08,3.08,0,0,0,.787,2.044l2.492,2.827a3.688,3.688,0,0,0,2.762,1.208h3.45V958.9a1.648,1.648,0,0,0,1.65,1.65H687.7v7.505a8.543,8.543,0,0,0,2.061,5.846,9.144,9.144,0,0,0,12.079,0,8.419,8.419,0,0,0,2.01-5.8v-7.572a8.118,8.118,0,0,1,1.956-5.32,7.093,7.093,0,0,1,5.324-1.922,7,7,0,0,1,5.314,1.915,7.645,7.645,0,0,1,1.775,5.116Zm-37.665-15.469-2.831-3.638-.678-.871v-.714l.678-.015,3.229-.078a.811.811,0,0,0,.549-.23.775.775,0,0,0,.238-.533.72.72,0,0,0-.75-.731l-3.265.08-.678.015v-1.842l.678-.015,1.741-.042a.8.8,0,0,0,.549-.232.758.758,0,0,0,.236-.533.713.713,0,0,0-.751-.728l-1.775.042-.642.015-.036,0v-1.831l.067.006.611-.013,1.806-.046a.814.814,0,0,0,.55-.23.773.773,0,0,0,.236-.534.715.715,0,0,0-.75-.73l-1.842.044-.575.015-.1.01v-1.829l.156.012.522-.012,3.455-.082a.823.823,0,0,0,.549-.231.769.769,0,0,0,.236-.533.719.719,0,0,0-.753-.732l-3.488.084-.488.012-.19.032v-1.874l.678-.015,1.741-.042a.815.815,0,0,0,.549-.23.766.766,0,0,0,.236-.533.716.716,0,0,0-.751-.732l-1.775.044-.642.015-.036,0v-1.831l.067.006.667-.017,1.751-.042a.813.813,0,0,0,.55-.23.773.773,0,0,0,.236-.533.715.715,0,0,0-.75-.729l-.552.013-1.865.042-.1.015v-1.831l.156.011,3.977-.093a.822.822,0,0,0,.549-.23.774.774,0,0,0,.236-.533.718.718,0,0,0-.753-.731l-3.976.1-.19.028v-1.874l.067,0,2.417-.057a.824.824,0,0,0,.55-.231.775.775,0,0,0,.236-.537.717.717,0,0,0-.75-.728l-2.417.057-.1.013v-3.206h23.034v28.643l-3.511,4.509Z" transform="translate(-674.298 -902.742)" fill="#616e7d"/>
    </g>
  </g>
</svg>
