<svg xmlns="http://www.w3.org/2000/svg" width="26.378" height="25.827" viewBox="0 0 26.378 25.827">
  <g id="Group_133" data-name="Group 133" transform="translate(-55.83 -186.035)" opacity="0.7">
    <path id="Path_917" data-name="Path 917" d="M72.351,213.758l-.006,0,0,0Z" transform="translate(4.107 -4.026)" fill="#616e7d"/>
    <g id="Path_1940" data-name="Path 1940" transform="translate(55.83 186.035)" fill="none">
      <path d="M13.189,0A13.053,13.053,0,0,1,26.378,12.913,13.053,13.053,0,0,1,13.189,25.827,13.053,13.053,0,0,1,0,12.913,13.053,13.053,0,0,1,13.189,0Z" stroke="none"/>
      <path d="M 13.18896484375 0.4999961853027344 C 9.797634124755859 0.4999961853027344 6.60981559753418 1.792526245117188 4.21275520324707 4.139495849609375 C 1.818544387817383 6.483675003051758 0.4999942779541016 9.599626541137695 0.4999942779541016 12.91335582733154 C 0.4999942779541016 16.22707557678223 1.818544387817383 19.34302520751953 4.21275520324707 21.68720626831055 C 6.609825134277344 24.03417587280273 9.797634124755859 25.32671546936035 13.18896484375 25.32671546936035 C 16.58029556274414 25.32671546936035 19.76810455322266 24.0341854095459 22.16516494750977 21.68720626831055 C 24.55937576293945 19.34302520751953 25.8779239654541 16.22708511352539 25.8779239654541 12.91335582733154 C 25.8779239654541 9.599626541137695 24.55937576293945 6.483675003051758 22.16516494750977 4.139495849609375 C 19.76810455322266 1.792526245117188 16.58029556274414 0.4999961853027344 13.18896484375 0.4999961853027344 M 13.18896484375 -3.814697265625e-06 C 20.47302436828613 -3.814697265625e-06 26.3779239654541 5.781505584716797 26.3779239654541 12.91335582733154 C 26.3779239654541 20.04519653320313 20.47302436828613 25.82671546936035 13.18896484375 25.82671546936035 C 5.904905319213867 25.82671546936035 -5.7220458984375e-06 20.04519653320313 -5.7220458984375e-06 12.91335582733154 C -5.7220458984375e-06 5.781505584716797 5.904905319213867 -3.814697265625e-06 13.18896484375 -3.814697265625e-06 Z" stroke="none" fill="#fff"/>
    </g>
    <path id="Path_922" data-name="Path 922" d="M72.351,213.758h0l0,0Z" transform="translate(4.107 -4.025)" fill="#fff"/>
    <path id="Path_921" data-name="Path 921" d="M71.591,212.823l0,0h0a2.431,2.431,0,0,0,.23-.168c.054-.044.105-.091.155-.138l0-.008a2.241,2.241,0,0,0,.184-.133c.048-.039.095-.082.141-.126a2.579,2.579,0,0,0-.228-2.683c-.913-1.6-2.808-3.031-3.757-3.031a.574.574,0,0,0-.365.108l-.315.257-.185.15-.228.185a1.036,1.036,0,0,1-.638.248.518.518,0,0,1-.415-.176l-.547-.673a21.351,21.351,0,0,0-2.606-3.855,21.423,21.423,0,0,0-3.245-3.338l-.535-.658c-.213-.261-.085-.715.284-1.016l.068-.056.16-.13.293-.238.27-.219.035-.031c.542-1.221-1.142-4.148-2.72-5.318a2.129,2.129,0,0,0-1.187-.5.926.926,0,0,0-.232.029l-.272.222-.105.086-.335.271-.047.038-.181.148-.116.093-.25.205.012.015c-2.182,2.259-.47,8.29,3.979,13.759,3.6,4.425,7.922,7.171,10.849,7.171a3.341,3.341,0,0,0,1.816-.476h0l.031-.022h0Z" transform="translate(4.87 -3.093)" fill="none" stroke="#fff" stroke-width="1"/>
    <path id="Path_916" data-name="Path 916" d="M73.764,212.206a2.429,2.429,0,0,0,.549-2.628,4.744,4.744,0,0,0-.885-1.663c-.084-.1-.172-.2-.261-.3a3.854,3.854,0,0,0-2.659-1.311,1.891,1.891,0,0,0-1.214.405l-.15.122c1.175.162,3.028,1.69,3.894,3.251l.01.017a3.212,3.212,0,0,1,.449,2.32Z" transform="translate(4.24 -3.716)" fill="#fff"/>
    <path id="Path_920" data-name="Path 920" d="M61.081,196.6c.977-.794.911-2.516-.1-3.978-.076-.109-.155-.216-.241-.322a4.327,4.327,0,0,0-2.375-1.548,2.721,2.721,0,0,0-.553-.066,1.936,1.936,0,0,0-.993.259,2.729,2.729,0,0,1,1.1.52,8.135,8.135,0,0,1,1.864,2.057,6.019,6.019,0,0,1,1.125,3.222Z" transform="translate(4.752 -3.068)" fill="#fff"/>
  </g>
</svg>
