<svg xmlns="http://www.w3.org/2000/svg" width="23.965" height="27.939" viewBox="0 0 23.965 27.939">
  <g id="Group_35" data-name="Group 35" transform="translate(-675.674 -516.238)" opacity="0.7">
    <path id="Path_379" data-name="Path 379" d="M677.331,525.6a.106.106,0,0,0-.113.1v.174a.106.106,0,0,0,.113.1h3.294a.107.107,0,0,0,.114-.1V525.7a.107.107,0,0,0-.114-.1Z" transform="translate(-0.226 -1.37)" fill="none"/>
    <path id="Path_380" data-name="Path 380" d="M675.679,518.733a.167.167,0,0,0,.029.143.163.163,0,0,0,.13.065h.044a.163.163,0,0,0,.158-.125,3,3,0,0,1,2.29-2.2.169.169,0,0,0,.133-.163v-.044a.165.165,0,0,0-.2-.165A3.371,3.371,0,0,0,675.679,518.733Z" fill="none"/>
    <path id="Path_381" data-name="Path 381" d="M677.331,526.634a.106.106,0,0,0-.113.1v.174a.106.106,0,0,0,.113.1h3.294a.107.107,0,0,0,.114-.1v-.174a.107.107,0,0,0-.114-.1Z" transform="translate(-0.226 -1.521)" fill="none"/>
    <path id="Path_382" data-name="Path 382" d="M677.331,527.664a.106.106,0,0,0-.113.1v.174a.105.105,0,0,0,.113.1h3.294a.106.106,0,0,0,.114-.1v-.174a.107.107,0,0,0-.114-.1Z" transform="translate(-0.226 -1.671)" fill="none"/>
    <path id="Path_383" data-name="Path 383" d="M685.236,526.662a4.793,4.793,0,1,0,4.794-4.794A4.794,4.794,0,0,0,685.236,526.662Z" transform="translate(-0.117 0.458)" fill="none" stroke="#fff" stroke-width="1"/>
    <path id="Path_384" data-name="Path 384" d="M687.255,536.772a5.71,5.71,0,0,0-5.71,5.711v2.772a31.857,31.857,0,0,0,8.892,1.426A40.2,40.2,0,0,0,700,545.255v-2.772a5.71,5.71,0,0,0-5.711-5.711Zm5.78,7.5h-4.526l-1.31-6.879c.127-.009.256-.02.389-.02h6.37c.131,0,.26.01.388.02Z" transform="translate(-0.859 -3.004)" fill="none" stroke="#fff" stroke-width="1"/>
    <path id="Path_386" data-name="Path 386" d="M690.689,543.013h2.1l-.52-3.42h-.018l.511-.939h-2.044l.511.939h-.018Z" transform="translate(-1.827 -3.365)" fill="#fff"/>
  </g>
</svg>
