<svg xmlns="http://www.w3.org/2000/svg" width="26.01" height="19.95" viewBox="0 0 26.01 19.95">
  <g id="Group_260" data-name="Group 260" transform="translate(-1037.955 -907.216)" opacity="0.7">
    <path id="Path_1889" data-name="Path 1889" d="M1065.1,909.276h-14.588l1.135,2.822,13.3.011a6.175,6.175,0,0,1,.75.087l-.028-.009v-2.341A.57.57,0,0,0,1065.1,909.276Z" transform="translate(-4.071 -0.527)" fill="#fff"/>
    <path id="Path_1890" data-name="Path 1890" d="M1061.632,911.67a6.194,6.194,0,0,0-.75-.087l-13.3-.011-1.135-2.822-.415-1.034h-6.366a1.209,1.209,0,0,0-1.209,1.208v16.533a1.209,1.209,0,0,0,1.21,1.209h22.59a1.209,1.209,0,0,0,1.21-1.209V914.083A2.511,2.511,0,0,0,1061.632,911.67Zm-6.143,8.8h-3.161v3.161h-2.737v-3.161h-3.161v-2.737h3.161v-3.161h2.737v3.161h3.161Z" fill="none" stroke="#fff" stroke-width="1"/>
    <path id="Path_1891" data-name="Path 1891" d="M1056.391,927.123v-3.162h3.161v-2.737h-3.161v-3.161h-2.737v3.161h-3.161v2.737h3.161v3.162Z" transform="translate(-4.063 -3.492)" fill="none" stroke="#fff" stroke-width="1"/>
  </g>
</svg>
