<svg xmlns="http://www.w3.org/2000/svg" width="26.709" height="31.584" viewBox="0 0 26.709 31.584">
  <g id="Group_168" data-name="Group 168" transform="translate(-734.931 -381.024)" opacity="0.7">
    <path id="Path_1360" data-name="Path 1360" d="M755.411,400.732c.014,0,.027,0,.041,0V381.274H735.181v27.081H750.11a5.672,5.672,0,0,1,5.3-7.623ZM738.6,385.118h15.151v1.812H738.6Zm-1.714,4.1h16.865v1.811H736.884Zm0,4.1h16.865v1.812H736.884Zm12.673,10.011H736.884v-1.812h12.673Zm-12.673-4.1v-1.811h16.865v1.811Z" fill="none" stroke="#fff" stroke-width="0.5"/>
    <path id="Path_1362" data-name="Path 1362" d="M755.411,400.732a5.856,5.856,0,1,0,.041,0C755.438,400.733,755.425,400.731,755.411,400.732Zm4.276,5.657a4.235,4.235,0,1,1-4.266-4.2A4.242,4.242,0,0,1,759.687,406.389Z" fill="none" stroke="#fff" stroke-width="1"/>
    <path id="Path_1363" data-name="Path 1363" d="M754.982,407.3v-1.35h1.351v-1.169h-1.351v-1.351h-1.169v1.351h-1.351v1.169h1.351v1.35Z" transform="translate(1.053 1.053)" fill="#fff"/>
  </g>
</svg>
