<svg xmlns="http://www.w3.org/2000/svg" width="42.392" height="33.107" viewBox="0 0 42.392 33.107">
  <g id="Group_276" data-name="Group 276" transform="translate(-1484.646 -73.14)">
    <g id="Group_141" data-name="Group 141" transform="translate(1128.686 -110)">
      <path id="Path_1033" data-name="Path 1033" d="M368.448,190.754a5.362,5.362,0,1,0,5.807,4.875A5.363,5.363,0,0,0,368.448,190.754Z" fill="none"/>
      <path id="Path_1034" data-name="Path 1034" d="M386.585,203.168a3.757,3.757,0,0,0-1.28,4.979,3.712,3.712,0,1,0,1.28-4.979Z" fill="none"/>
      <path id="Path_1035" data-name="Path 1035" d="M381.231,200.263a12.823,12.823,0,0,0,.636-3.056l-2.108-1.021c0-.342-.01-.686-.041-1.032-.008-.119-.024-.236-.038-.355l1.983-1.253a12.863,12.863,0,0,0-.97-2.965l-2.342.17a10.536,10.536,0,0,0-.761-1.164l1.09-2.074a13.177,13.177,0,0,0-2.325-2.081l-1.942,1.317a11.013,11.013,0,0,0-1.24-.63l-.092-2.34a12.937,12.937,0,0,0-3.056-.639L369,185.25c-.341,0-.684.01-1.031.04-.121.011-.238.026-.356.04l-1.252-1.985a13,13,0,0,0-2.966.971l.17,2.342a10.386,10.386,0,0,0-1.163.762l-2.075-1.091a12.994,12.994,0,0,0-2.08,2.327l1.318,1.941a10.453,10.453,0,0,0-.631,1.239l-2.342.092a12.913,12.913,0,0,0-.636,3.056l2.109,1.021c0,.342.009.686.039,1.032.011.12.025.236.041.356l-1.985,1.252a13.059,13.059,0,0,0,.971,2.965l2.341-.17a10.881,10.881,0,0,0,.762,1.164l-1.091,2.072a13,13,0,0,0,2.327,2.082l1.941-1.316a10.689,10.689,0,0,0,1.24.63l.092,2.341a12.845,12.845,0,0,0,3.054.636l1.024-2.108c.34,0,.685-.01,1.031-.04.119-.009.237-.026.353-.041l1.253,1.987a13.058,13.058,0,0,0,2.967-.97l-.169-2.343a11.348,11.348,0,0,0,1.163-.762l2.074,1.09a13.064,13.064,0,0,0,2.079-2.326l-1.315-1.941a11.448,11.448,0,0,0,.63-1.24Zm-12.317,3.476a7.644,7.644,0,1,1,7.644-7.643A7.652,7.652,0,0,1,368.914,203.739Z" fill="#495265"/>
      <path id="Path_1036" data-name="Path 1036" d="M361.816,196.1a7.1,7.1,0,1,0,7.1-7.1A7.1,7.1,0,0,0,361.816,196.1Zm12.439-.467a5.362,5.362,0,1,1-5.807-4.875A5.362,5.362,0,0,1,374.255,195.629Z" fill="#616e7d"/>
      <path id="Path_1037" data-name="Path 1037" d="M382.446,206.3a6.084,6.084,0,1,0,6.209-5.954A6.091,6.091,0,0,0,382.446,206.3Zm9.287-1.863a3.712,3.712,0,1,1-6.428,3.714,3.757,3.757,0,0,1,1.28-4.979A3.712,3.712,0,0,1,391.733,204.433Z" fill="#616e7d"/>
      <path id="Path_1038" data-name="Path 1038" d="M398.3,207.388a10.021,10.021,0,0,0-.022-2.134l-1.655-.4a8.8,8.8,0,0,0-.365-1.29l1.213-1.2a9.627,9.627,0,0,0-.5-.949,9.452,9.452,0,0,0-.593-.888l-1.633.488a8.082,8.082,0,0,0-.957-.94l.452-1.642a9.94,9.94,0,0,0-1.86-1.047l-1.172,1.24a8.416,8.416,0,0,0-1.3-.334l-.433-1.652a9.791,9.791,0,0,0-2.13.027l-.4,1.654a8.167,8.167,0,0,0-1.288.364l-1.2-1.212a9.4,9.4,0,0,0-.949.492,9.7,9.7,0,0,0-.887.592l.486,1.635a8.309,8.309,0,0,0-.939.957l-1.642-.451a9.89,9.89,0,0,0-1.047,1.857l1.239,1.174a8.51,8.51,0,0,0-.332,1.3l-1.649.433a9.819,9.819,0,0,0,.022,2.133l1.657.394a8.58,8.58,0,0,0,.361,1.293l-1.212,1.2a9.237,9.237,0,0,0,.492.946,9.894,9.894,0,0,0,.593.89l1.635-.487a8.392,8.392,0,0,0,.957.939l-.45,1.643a9.735,9.735,0,0,0,1.856,1.044l1.175-1.237a8,8,0,0,0,1.3.332l.432,1.651a10,10,0,0,0,2.132-.022l.394-1.657a8.172,8.172,0,0,0,1.291-.364l1.2,1.213a9.661,9.661,0,0,0,1.833-1.086l-.486-1.633a8.4,8.4,0,0,0,.939-.957l1.643.45a9.772,9.772,0,0,0,1.045-1.857l-1.239-1.175a8.359,8.359,0,0,0,.334-1.294Zm-9.91,5.381a6.347,6.347,0,1,1,6.48-6.212A6.352,6.352,0,0,1,388.395,212.769Z" fill="#495265"/>
      <path id="Path_1039" data-name="Path 1039" d="M361.27,196.1a7.644,7.644,0,1,0,7.644-7.644A7.652,7.652,0,0,0,361.27,196.1Zm14.741,0a7.1,7.1,0,1,1-7.1-7.1A7.1,7.1,0,0,1,376.011,196.1Z" fill="#aad4c8"/>
      <path id="Path_1040" data-name="Path 1040" d="M382.184,206.291a6.347,6.347,0,1,0,6.478-6.213A6.352,6.352,0,0,0,382.184,206.291Zm12.427.261a6.084,6.084,0,1,1-5.956-6.21A6.09,6.09,0,0,1,394.611,206.552Z" fill="#82bfab"/>
    </g>
  </g>
</svg>
